<?xml version="1.0" encoding="utf-8"?>
<!-- Generator: Adobe Illustrator 24.1.1, SVG Export Plug-In . SVG Version: 6.00 Build 0)  -->
<svg version="1.1" id="Layer_1" xmlns="http://www.w3.org/2000/svg" xmlns:xlink="http://www.w3.org/1999/xlink" x="0px" y="0px"
	 viewBox="0 0 512 512" style="enable-background:new 0 0 512 512;" xml:space="preserve">
<style type="text/css">
	.st0{fill:#fff;}
</style>
<g id="XMLID_2_">
	<path id="XMLID_7_" class="st0" d="M475.7,256c-28.9-44.7-65.2-78.2-108.9-100.5c11.2,19.5,17.7,41,17.7,64.2
		c0,35.4-12.1,65.2-37.2,90.3s-54.9,37.2-90.3,37.2c-35.4,0-65.2-12.1-90.3-37.2s-37.2-54.9-37.2-90.3c0-23.3,5.6-44.7,17.7-64.2
		C103.3,177.8,67,211.3,38.2,256c25.1,39.1,56.8,69.8,95,93.1s79.1,34.4,123.8,34.4s85.6-11.2,123.8-34.4S450.6,295.1,475.7,256z
		 M270,146.2c0-3.7-0.9-7.4-3.7-9.3c-2.8-2.8-5.6-3.7-9.3-3.7c-24.2,0-44.7,8.4-61.4,25.1s-25.1,37.2-25.1,61.4
		c0,3.7,0.9,7.4,3.7,9.3c2.8,1.9,5.6,3.7,9.3,3.7s7.4-0.9,9.3-3.7c2.8-2.8,3.7-5.6,3.7-9.3c0-16.8,5.6-30.7,17.7-41.9
		c11.2-11.2,26.1-17.7,41.9-17.7c3.7,0,7.4-0.9,9.3-3.7C268.1,153.6,270,149.9,270,146.2z M512,256c0,6.5-1.9,13-5.6,19.5
		c-27,43.8-62.4,79.1-108,105.2c-45.6,26.1-92.2,40-142.4,40s-97.7-13-142.4-40s-81-61.4-108-105.2C1.9,269,0,262.5,0,256
		c0-6.5,1.9-13,5.6-19.5c27-43.8,62.4-79.1,108-105.2s92.2-40,142.4-40s97.7,13,142.4,40c44.7,27,81,61.4,108,105.2
		C510.1,243,512,249.5,512,256z"/>
</g>
</svg>
